<svg width="92" height="96" viewBox="0 0 92 96" fill="none" xmlns="http://www.w3.org/2000/svg">
<path d="M55.3828 17.125V55.1328C55.3828 61.1745 53.4427 65.9661 49.5625 69.5078C45.7083 73.0234 40.5651 74.7812 34.1328 74.7812C27.6224 74.7812 22.4531 73.0495 18.625 69.5859C14.7969 66.0964 12.8828 61.2656 12.8828 55.0938V17.125H22.7266V55.1719C22.7266 58.974 23.6901 61.8776 25.6172 63.8828C27.5443 65.888 30.3828 66.8906 34.1328 66.8906C41.737 66.8906 45.5391 62.8802 45.5391 54.8594V17.125H55.3828ZM76.3984 74H66.5547V17.125H76.3984V74Z" fill="white"/>
<path d="M9.83594 88.2969C9.72135 89.5104 9.27344 90.4583 8.49219 91.1406C7.71094 91.8177 6.67188 92.1562 5.375 92.1562C4.46875 92.1562 3.66927 91.9427 2.97656 91.5156C2.28906 91.0833 1.75781 90.4714 1.38281 89.6797C1.00781 88.888 0.8125 87.9688 0.796875 86.9219V85.8594C0.796875 84.7865 0.986979 83.8411 1.36719 83.0234C1.7474 82.2057 2.29167 81.5755 3 81.1328C3.71354 80.6901 4.53646 80.4688 5.46875 80.4688C6.72396 80.4688 7.73438 80.8099 8.5 81.4922C9.26562 82.1745 9.71094 83.138 9.83594 84.3828H7.86719C7.77344 83.5651 7.53385 82.9766 7.14844 82.6172C6.76823 82.2526 6.20833 82.0703 5.46875 82.0703C4.60938 82.0703 3.94792 82.3854 3.48438 83.0156C3.02604 83.6406 2.79167 84.5599 2.78125 85.7734V86.7812C2.78125 88.0104 3 88.9479 3.4375 89.5938C3.88021 90.2396 4.52604 90.5625 5.375 90.5625C6.15104 90.5625 6.73438 90.388 7.125 90.0391C7.51562 89.6901 7.76302 89.1094 7.86719 88.2969H9.83594ZM11.0703 87.6953C11.0703 86.8672 11.2344 86.1224 11.5625 85.4609C11.8906 84.7943 12.3516 84.2839 12.9453 83.9297C13.5391 83.5703 14.2214 83.3906 14.9922 83.3906C16.1328 83.3906 17.0573 83.7578 17.7656 84.4922C18.4792 85.2266 18.8646 86.2005 18.9219 87.4141L18.9297 87.8594C18.9297 88.6927 18.7682 89.4375 18.4453 90.0938C18.1276 90.75 17.6693 91.2578 17.0703 91.6172C16.4766 91.9766 15.7891 92.1562 15.0078 92.1562C13.8151 92.1562 12.8594 91.7604 12.1406 90.9688C11.4271 90.1719 11.0703 89.112 11.0703 87.7891V87.6953ZM12.9688 87.8594C12.9688 88.7292 13.1484 89.4115 13.5078 89.9062C13.8672 90.3958 14.3672 90.6406 15.0078 90.6406C15.6484 90.6406 16.1458 90.3906 16.5 89.8906C16.8594 89.3906 17.0391 88.6589 17.0391 87.6953C17.0391 86.8411 16.8542 86.1641 16.4844 85.6641C16.1198 85.1641 15.6224 84.9141 14.9922 84.9141C14.3724 84.9141 13.8802 85.1615 13.5156 85.6562C13.151 86.1458 12.9688 86.8802 12.9688 87.8594ZM22.3203 83.5469L22.375 84.4297C22.9688 83.737 23.7812 83.3906 24.8125 83.3906C25.9427 83.3906 26.7161 83.8229 27.1328 84.6875C27.7474 83.8229 28.612 83.3906 29.7266 83.3906C30.6589 83.3906 31.3516 83.6484 31.8047 84.1641C32.263 84.6797 32.4974 85.4401 32.5078 86.4453V92H30.6094V86.5C30.6094 85.9635 30.4922 85.5703 30.2578 85.3203C30.0234 85.0703 29.6354 84.9453 29.0938 84.9453C28.6615 84.9453 28.3073 85.0625 28.0312 85.2969C27.7604 85.526 27.5703 85.8281 27.4609 86.2031L27.4688 92H25.5703V86.4375C25.5443 85.4427 25.0365 84.9453 24.0469 84.9453C23.2865 84.9453 22.7474 85.2552 22.4297 85.875V92H20.5312V83.5469H22.3203ZM41.8594 87.8594C41.8594 89.1667 41.5625 90.2109 40.9688 90.9922C40.375 91.7682 39.5781 92.1562 38.5781 92.1562C37.651 92.1562 36.9089 91.8516 36.3516 91.2422V95.25H34.4531V83.5469H36.2031L36.2812 84.4062C36.8385 83.7292 37.5964 83.3906 38.5547 83.3906C39.5859 83.3906 40.3932 83.776 40.9766 84.5469C41.5651 85.3125 41.8594 86.3776 41.8594 87.7422V87.8594ZM39.9688 87.6953C39.9688 86.8516 39.7995 86.1823 39.4609 85.6875C39.1276 85.1927 38.6484 84.9453 38.0234 84.9453C37.2474 84.9453 36.6901 85.2656 36.3516 85.9062V89.6562C36.6953 90.3125 37.2578 90.6406 38.0391 90.6406C38.6432 90.6406 39.1146 90.3984 39.4531 89.9141C39.7969 89.4245 39.9688 88.6849 39.9688 87.6953ZM43.1172 87.6953C43.1172 86.8672 43.2812 86.1224 43.6094 85.4609C43.9375 84.7943 44.3984 84.2839 44.9922 83.9297C45.5859 83.5703 46.2682 83.3906 47.0391 83.3906C48.1797 83.3906 49.1042 83.7578 49.8125 84.4922C50.526 85.2266 50.9115 86.2005 50.9688 87.4141L50.9766 87.8594C50.9766 88.6927 50.8151 89.4375 50.4922 90.0938C50.1745 90.75 49.7161 91.2578 49.1172 91.6172C48.5234 91.9766 47.8359 92.1562 47.0547 92.1562C45.862 92.1562 44.9062 91.7604 44.1875 90.9688C43.474 90.1719 43.1172 89.112 43.1172 87.7891V87.6953ZM45.0156 87.8594C45.0156 88.7292 45.1953 89.4115 45.5547 89.9062C45.9141 90.3958 46.4141 90.6406 47.0547 90.6406C47.6953 90.6406 48.1927 90.3906 48.5469 89.8906C48.9062 89.3906 49.0859 88.6589 49.0859 87.6953C49.0859 86.8411 48.901 86.1641 48.5312 85.6641C48.1667 85.1641 47.6693 84.9141 47.0391 84.9141C46.4193 84.9141 45.9271 85.1615 45.5625 85.6562C45.1979 86.1458 45.0156 86.8802 45.0156 87.8594ZM54.3438 83.5469L54.3984 84.5234C55.0234 83.7682 55.8438 83.3906 56.8594 83.3906C58.6198 83.3906 59.5156 84.3984 59.5469 86.4141V92H57.6484V86.5234C57.6484 85.987 57.5312 85.5911 57.2969 85.3359C57.0677 85.0755 56.6901 84.9453 56.1641 84.9453C55.3984 84.9453 54.8281 85.2917 54.4531 85.9844V92H52.5547V83.5469H54.3438ZM65.2109 92.1562C64.0078 92.1562 63.0312 91.7786 62.2812 91.0234C61.5365 90.263 61.1641 89.2526 61.1641 87.9922V87.7578C61.1641 86.9141 61.3255 86.1615 61.6484 85.5C61.9766 84.8333 62.4349 84.3151 63.0234 83.9453C63.612 83.5755 64.2682 83.3906 64.9922 83.3906C66.1432 83.3906 67.0312 83.7578 67.6562 84.4922C68.2865 85.2266 68.6016 86.2656 68.6016 87.6094V88.375H63.0781C63.1354 89.0729 63.3672 89.625 63.7734 90.0312C64.1849 90.4375 64.7005 90.6406 65.3203 90.6406C66.1901 90.6406 66.8984 90.2891 67.4453 89.5859L68.4688 90.5625C68.1302 91.0677 67.6771 91.4609 67.1094 91.7422C66.5469 92.0182 65.9141 92.1562 65.2109 92.1562ZM64.9844 84.9141C64.4635 84.9141 64.0417 85.0964 63.7188 85.4609C63.401 85.8255 63.1979 86.3333 63.1094 86.9844H66.7266V86.8438C66.6849 86.2083 66.5156 85.7292 66.2188 85.4062C65.9219 85.0781 65.5104 84.9141 64.9844 84.9141ZM71.8438 83.5469L71.8984 84.5234C72.5234 83.7682 73.3438 83.3906 74.3594 83.3906C76.1198 83.3906 77.0156 84.3984 77.0469 86.4141V92H75.1484V86.5234C75.1484 85.987 75.0312 85.5911 74.7969 85.3359C74.5677 85.0755 74.1901 84.9453 73.6641 84.9453C72.8984 84.9453 72.3281 85.2917 71.9531 85.9844V92H70.0547V83.5469H71.8438ZM81.3672 81.4922V83.5469H82.8594V84.9531H81.3672V89.6719C81.3672 89.9948 81.4297 90.2292 81.5547 90.375C81.6849 90.5156 81.9141 90.5859 82.2422 90.5859C82.4609 90.5859 82.6823 90.5599 82.9062 90.5078V91.9766C82.474 92.0964 82.0573 92.1562 81.6562 92.1562C80.1979 92.1562 79.4688 91.3516 79.4688 89.7422V84.9531H78.0781V83.5469H79.4688V81.4922H81.3672ZM89.0547 89.7031C89.0547 89.3646 88.9141 89.1068 88.6328 88.9297C88.3568 88.7526 87.8958 88.5964 87.25 88.4609C86.6042 88.3255 86.0651 88.1536 85.6328 87.9453C84.6849 87.487 84.2109 86.8229 84.2109 85.9531C84.2109 85.224 84.5182 84.6146 85.1328 84.125C85.7474 83.6354 86.5286 83.3906 87.4766 83.3906C88.487 83.3906 89.3021 83.6406 89.9219 84.1406C90.5469 84.6406 90.8594 85.2891 90.8594 86.0859H88.9609C88.9609 85.7214 88.8255 85.4193 88.5547 85.1797C88.2839 84.9349 87.9245 84.8125 87.4766 84.8125C87.0599 84.8125 86.7188 84.9089 86.4531 85.1016C86.1927 85.2943 86.0625 85.5521 86.0625 85.875C86.0625 86.1667 86.1849 86.3932 86.4297 86.5547C86.6745 86.7161 87.1693 86.8802 87.9141 87.0469C88.6589 87.2083 89.2422 87.4036 89.6641 87.6328C90.0911 87.8568 90.4062 88.1276 90.6094 88.4453C90.8177 88.763 90.9219 89.1484 90.9219 89.6016C90.9219 90.362 90.6068 90.9792 89.9766 91.4531C89.3464 91.9219 88.5208 92.1562 87.5 92.1562C86.8073 92.1562 86.1901 92.0312 85.6484 91.7812C85.1068 91.5312 84.6849 91.1875 84.3828 90.75C84.0807 90.3125 83.9297 89.8411 83.9297 89.3359H85.7734C85.7995 89.7839 85.9688 90.1302 86.2812 90.375C86.5938 90.6146 87.0078 90.7344 87.5234 90.7344C88.0234 90.7344 88.4036 90.6406 88.6641 90.4531C88.9245 90.2604 89.0547 90.0104 89.0547 89.7031Z" fill="white"/>
<path d="M0 93.5625H91.6016V94.3438H0V93.5625Z" fill="white"/>
</svg>
