<?xml version="1.0" encoding="UTF-8"?>
<svg xmlns="http://www.w3.org/2000/svg" xmlns:xlink="http://www.w3.org/1999/xlink" width="580pt" height="580.01pt" viewBox="0 0 580 580.01" version="1.1">
<g id="surface1">
<path style=" stroke:none;fill-rule:nonzero;fill:rgb(4.299927%,45.899963%,60.798645%);fill-opacity:1;" d="M 41.222656 289.992188 C 41.222656 388.476563 98.453125 473.570313 181.4375 513.90625 L 62.761719 188.746094 C 48.957031 219.6875 41.222656 253.929688 41.222656 289.992188 "/>
<path style=" stroke:none;fill-rule:nonzero;fill:rgb(4.299927%,45.899963%,60.798645%);fill-opacity:1;" d="M 457.953125 277.441406 C 457.953125 246.695313 446.910156 225.402344 437.433594 208.828125 C 424.828125 188.335938 413.011719 170.980469 413.011719 150.488281 C 413.011719 127.617188 430.351563 106.332031 454.78125 106.332031 C 455.886719 106.332031 456.929688 106.46875 458.011719 106.53125 C 413.742188 65.980469 354.773438 41.222656 290.003906 41.222656 C 203.089844 41.222656 126.625 85.816406 82.140625 153.359375 C 87.980469 153.535156 93.484375 153.652344 98.148438 153.652344 C 124.171875 153.652344 164.457031 150.492188 164.457031 150.492188 C 177.867188 149.703125 179.449219 169.402344 166.058594 170.988281 C 166.058594 170.988281 152.574219 172.574219 137.574219 173.359375 L 228.175781 442.835938 L 282.625 279.546875 L 243.855469 173.355469 C 230.457031 172.566406 217.765625 170.980469 217.765625 170.980469 C 204.359375 170.195313 205.929688 149.699219 219.339844 150.488281 C 219.339844 150.488281 260.421875 153.644531 284.867188 153.644531 C 310.886719 153.644531 351.167969 150.488281 351.167969 150.488281 C 364.589844 149.699219 366.164063 169.394531 352.765625 170.980469 C 352.765625 170.980469 339.261719 172.566406 324.292969 173.355469 L 414.199219 440.789063 L 439.003906 357.867188 C 449.769531 323.453125 457.953125 298.738281 457.953125 277.441406 "/>
<path style=" stroke:none;fill-rule:nonzero;fill:rgb(4.299927%,45.899963%,60.798645%);fill-opacity:1;" d="M 294.367188 311.757813 L 219.726563 528.652344 C 242.011719 535.214844 265.582031 538.796875 290.003906 538.796875 C 318.976563 538.796875 346.757813 533.78125 372.621094 524.691406 C 371.945313 523.628906 371.339844 522.496094 370.847656 521.265625 L 294.367188 311.757813 "/>
<path style=" stroke:none;fill-rule:nonzero;fill:rgb(4.299927%,45.899963%,60.798645%);fill-opacity:1;" d="M 508.304688 170.636719 C 509.371094 178.558594 509.976563 187.074219 509.976563 196.21875 C 509.976563 221.464844 505.261719 249.84375 491.058594 285.328125 L 415.070313 505.039063 C 489.03125 461.910156 538.777344 381.78125 538.777344 289.992188 C 538.78125 246.746094 527.734375 206.074219 508.304688 170.636719 "/>
<path style=" stroke:none;fill-rule:nonzero;fill:rgb(4.299927%,45.899963%,60.798645%);fill-opacity:1;" d="M 290.003906 566.714844 C 137.433594 566.714844 13.296875 442.574219 13.296875 289.992188 C 13.296875 137.429688 137.425781 13.304688 290.003906 13.304688 C 442.574219 13.304688 566.699219 137.429688 566.699219 289.992188 C 566.699219 442.578125 442.570313 566.714844 290.003906 566.714844 Z M 290.003906 0 C 130.097656 0 0 130.09375 0 289.996094 C 0 449.921875 130.09375 580.015625 290.003906 580.015625 C 449.90625 580.015625 580.023438 449.925781 580.023438 289.996094 C 580.019531 130.09375 449.90625 0 290.003906 0 "/>
</g>
</svg>
